<svg xmlns="http://www.w3.org/2000/svg" width="156" height="26.31" viewBox="0 0 156 26.31"><title>barclays</title><path d="M155.48,7.59a5.37,5.37,0,0,0-4.59-2.66c-1.72,0-3.23.7-3.23,2.53,0,1.54,1.9,2.58,3.88,3.86,2.17,1.35,4.41,3,4.41,5.91,0,3.78-3.68,6.1-7.92,6.1a15.63,15.63,0,0,1-5.63-1.12l.33-5a6.07,6.07,0,0,0,5.58,3.6c2.11,0,3.68-1,3.68-2.79,0-1.51-1.28-2.45-2.84-3.39-3.29-2-5.37-3.57-5.37-6.44,0-4.3,3.59-5.73,7.32-5.73,2.16,0,3.52.39,4.9.39l-.52,4.77M137.26,12.1c-.47.78-1.07,1.85-1.43,2.63a28.38,28.38,0,0,0-.47,5.66,4.45,4.45,0,0,0,.57,2.55h-5.45c1-.91,1.36-6.51,1.31-8.29a43.46,43.46,0,0,0-3.24-7.9c-1-1.84-2.08-3.59-2.78-3.93,1.22-.1,2.78-.18,3.54-.18,1.36,0,1.72.18,2.56,2,1.3,3,2.26,5.16,2.84,6.81,1.38-2.17,2.34-3.65,3.59-5.69A3.31,3.31,0,0,0,138.88,4a2,2,0,0,0-.29-1.22H144c-1.05.23-5.74,7.61-6.73,9.28M118.31,7.54l-3.23,7h5.26l-2-7m6.33,15.58c-1.72,0-1.85-.05-3.23-4.79l-.49-1.75a12.36,12.36,0,0,1-4.69.58h-2.4l-.42.88c-.6,1.33-1.41,2.89-1.41,4a3.31,3.31,0,0,0,.13.91H97.9c.81-.91,1.07-3.85,1.46-9.2l.08-1.28c.21-3.05.37-5.39.34-7a4.42,4.42,0,0,0-.52-2.61h5.5c-.78.6-1.07,3.83-1.44,9.18l-.1,1.27c-.13,2-.39,4-.39,6,0,.91.36,1.12,1.3,1.12,3.34,0,4.17-.08,5.68-1.1.94-1.72,2-3.88,3-6.12l1.41-3a40.86,40.86,0,0,0,2.63-6.23,2.74,2.74,0,0,0-.26-1.12H121s1.78,6.57,2.17,8l.86,3.19c1.48,5.34,2.42,7.94,3.67,9-1,.13-2.53.18-3.08.18m-35.47.21C84,23.33,81,19.06,81,14.26,81,7.59,84.61,2.43,91.52,2.43c2.16,0,3.18.39,4.92.39L95.92,8a5.37,5.37,0,0,0-4.77-3c-4.3,0-6.05,4.64-6.05,8.63,0,4.33,2.43,6.7,5.66,6.7,1.75,0,3.28-.47,5.87-2.27-1,3.34-3.47,5.34-7.46,5.34m-18-18.06c-.5,0-1.1,0-1.57.05-.15.86-.28,2.35-.47,4.74l-.1,1.41a4.34,4.34,0,0,0,.91.08c2.5,0,4.22-1.51,4.22-3.8,0-1.57-1.09-2.48-3-2.48M78.46,23.8c-1.49,0-1.85-.23-2.35-.91l-5.63-7.82C70,14.47,69.7,14,69,14h-.13l-.11,1.52c-.13,2.06-.21,3.7-.21,4.92s.19,2.19.55,2.53H63.65c.78-.7,1.07-3.05,1.51-9.2l.08-1.28c.21-3,.37-5.37.34-7,0-1.43-.18-2.32-.57-2.63h7.43c2.42,0,5.76.42,5.76,4.35,0,3.23-2.17,5-4.85,5.84a13.45,13.45,0,0,1,1,1.2l4.09,5.42c2.55,3.36,2.76,3.52,3.67,4a36.73,36.73,0,0,1-3.67.18M53.07,7.54l-3.26,7H55.1l-2-7M59.4,23.12c-1.71,0-1.85-.05-3.23-4.79l-.49-1.75a12.36,12.36,0,0,1-4.69.58h-2.4l-.42.88c-.42.94-1.43,2.87-1.41,4a3.46,3.46,0,0,0,.13.91H42.07c1.38-1.38,3.13-4.58,5.55-9.77l1.41-3a47.25,47.25,0,0,0,2.63-6.23,2.78,2.78,0,0,0-.26-1.12h4.38s1.15,4.35,2.17,8L58.81,14c1.48,5.34,2.42,8,3.67,9-1.12.13-2.53.18-3.08.18M34.59,5.24a12,12,0,0,0-1.41.06c-.21,1.4-.34,2.76-.44,4.24,0,0-.08,1.28-.08,1.23h.52c2.56,0,4.9-.89,4.9-3.23,0-1.36-1.12-2.3-3.49-2.3m-.65,8H32.51l-.21,3c-.11,1.3-.16,2.4-.19,3.7,0,.19.58.58,1.93.58,2.82,0,4.67-1.41,4.67-3.73,0-2.58-2.11-3.52-4.77-3.52m.31,9.72h-7c.89-.78,1.13-3.83,1.52-9.2l.07-1.25c.21-3.05.37-5.4.34-7,0-1.41-.18-2.32-.57-2.63h7.87c1.88,0,5.63.1,5.63,4,0,2.61-2.42,4.23-4.64,4.8,3.13.31,5.48,1.82,5.48,5.06,0,3.49-3.29,6.25-8.66,6.25" fill="#009fe0"/><path d="M11.37,0c-.69,0-.84.12-1.06.38H10A3.28,3.28,0,0,0,8.21.84a1.17,1.17,0,0,0-.53,1.52s.2-.29.87-.29h.31A1.56,1.56,0,0,1,10.38,4c-.07,1.28-.55,2.71-2.52,2.73,0,0-.25,0-.52,0A1.47,1.47,0,0,1,6.14,6a1.2,1.2,0,0,0,.79-1.22A1.81,1.81,0,0,0,5.47,3.21a3.28,3.28,0,0,0-.91-.12A3.66,3.66,0,0,0,1.65,4.51C-.08,6.8-.22,10.14.2,13.24a16.12,16.12,0,0,0,2.46,6.08.17.17,0,0,0,.12.08.11.11,0,0,0,.07,0,10.38,10.38,0,0,0,2-2.71c.37.3.18.93,0,1.6A10,10,0,0,1,4,20.16c-.17.29-.39.62-.09.8A.2.2,0,0,0,4,21c.38,0,1.28-.67,2.29-2A15.36,15.36,0,0,0,8,16.14c.08,0,.22.16.2.54A9.7,9.7,0,0,1,7,19.83a17.48,17.48,0,0,1-1.65,2.35c-.09.11,0,.18,0,.22a19.16,19.16,0,0,0,3.43,2.42,15.88,15.88,0,0,0,3.42,1.49,15.88,15.88,0,0,0,3.42-1.49,19,19,0,0,0,3.44-2.42c.05,0,.13-.1,0-.22a17.51,17.51,0,0,1-1.63-2.35,9.48,9.48,0,0,1-1.19-3.15c0-.38.11-.51.19-.54A15.42,15.42,0,0,0,18.24,19c1,1.34,1.9,2,2.29,2a.2.2,0,0,0,.11,0c.29-.18.08-.52-.09-.8a11.3,11.3,0,0,1-.84-1.9c-.2-.68-.4-1.31,0-1.6a10.16,10.16,0,0,0,2,2.71.11.11,0,0,0,.07,0,.17.17,0,0,0,.12-.08,15.94,15.94,0,0,0,2.46-6.08c.42-3.11.28-6.44-1.45-8.73A3.68,3.68,0,0,0,20,3.08a3.21,3.21,0,0,0-.9.12,1.8,1.8,0,0,0-1.45,1.57A1.2,1.2,0,0,0,18.42,6a1.46,1.46,0,0,1-1.21.67l-.51,0a2.08,2.08,0,0,1-1.87-1,6.05,6.05,0,0,1-.55-2.81A3.44,3.44,0,0,0,13.59.69,3.06,3.06,0,0,0,11.54,0h-.17" fill="#00a0da"/></svg>